<svg xmlns="http://www.w3.org/2000/svg" xmlns:xlink="http://www.w3.org/1999/xlink" width="16" height="16" version="1.1" viewBox="0 0 16 16"><title>playground-secret</title><desc>Created with Sketch.</desc><g id="Page-1" fill="none" fill-rule="evenodd" stroke="none" stroke-width="1"><g id="Group-5" transform="translate(1.800000, 3.700000)"><rect id="Rectangle" width="4" height="4" x=".4" y="0" fill="#B9B9B9" rx="2"/><rect id="Rectangle" width="3.6" height="3.6" x="6.6" y=".2" fill="#A6A6A6"/><polygon id="Path-2" fill="#868686" points="0 10.035 2.386 6 4.797 10.035"/></g><path id="Shape" fill="#78E762" fill-rule="nonzero" d="M10.5,9.5 C9.46501458,9.5 8.61953353,10.345481 8.61953353,11.3804665 L8.61953353,11.9198251 C8.27696793,11.9198251 8,12.196793 8,12.5393586 L8,14.9956268 C8,15.3381924 8.27696793,15.6151603 8.61953353,15.6151603 L12.3804665,15.6151603 C12.7230321,15.6151603 13,15.3381924 13,14.9956268 L13,12.5393586 C13,12.196793 12.7230321,11.9198251 12.3804665,11.9198251 L12.3804665,11.3804665 C12.3804665,10.345481 11.5349854,9.5 10.5,9.5 Z M11.7244898,11.9198251 L9.2755102,11.9198251 L9.2755102,11.3804665 C9.2755102,10.7099125 9.82215743,10.1559767 10.5,10.1559767 C11.1778426,10.1559767 11.7244898,10.7099125 11.7244898,11.3804665 L11.7244898,11.9198251 Z"/></g></svg>