<svg xmlns="http://www.w3.org/2000/svg" xmlns:xlink="http://www.w3.org/1999/xlink" style="enable-background:new 0 0 3840 854" id="Layer_1" x="0" y="0" version="1.1" viewBox="0 0 3840 854" xml:space="preserve"><style type="text/css">.st0{clip-path:url(#SVGID_2_)}.st1{fill:#172b4d}.st2{opacity:.36}.st3{stroke:url(#SVGID_3_)}.st3,.st4,.st5,.st6,.st7{fill:none;stroke-width:124.8022;stroke-linecap:round;stroke-miterlimit:10}.st4{stroke:url(#SVGID_4_)}.st5{stroke:url(#SVGID_5_)}.st6{stroke:url(#SVGID_6_)}.st7{stroke:url(#SVGID_7_)}.st10{stroke-width:177.4985}.st10,.st11,.st12,.st13,.st14,.st15,.st16,.st8,.st9{fill:none;stroke-linecap:round;stroke-miterlimit:10}.st8,.st9{stroke:url(#SVGID_8_);stroke-width:177.4985}.st9{stroke:url(#SVGID_9_)}.st10{stroke:url(#SVGID_10_)}.st11{stroke:url(#SVGID_11_)}.st11,.st12,.st13{stroke-width:116.1153}.st12{stroke:url(#SVGID_12_)}.st13{stroke:url(#SVGID_13_)}.st14{stroke:url(#SVGID_14_)}.st14,.st15,.st16{stroke-width:168.2371}.st15{stroke:url(#SVGID_15_)}.st16{stroke:url(#SVGID_16_)}</style><title>Artboard 1</title><g><defs><rect id="SVGID_1_" width="3869.8" height="860.6" x="-6.5" y="-1"/></defs><clipPath id="SVGID_2_"><use style="overflow:visible" xlink:href="#SVGID_1_"/></clipPath><g class="st0"><rect width="3869.8" height="860.6" x="-6.5" y="-1" class="st1"/><g class="st2"><linearGradient id="SVGID_3_" x1="755.006" x2="1607.564" y1="415.008" y2="415.008" gradientTransform="matrix(1 0 0 -1 0 856)" gradientUnits="userSpaceOnUse"><stop style="stop-color:#0052cc" offset=".1"/><stop style="stop-color:#0065ff" offset=".6"/></linearGradient><path d="M817.4,358.3l282.3-109.5c106-41.4,193.5-40.5,262.6-11.6s124,86.8,159.3,175.8c34.1,85.7,30,175.7-4,252.7" class="st3"/><linearGradient id="SVGID_4_" x1="27.865" x2="879.808" y1="578.989" y2="578.989" gradientTransform="matrix(1 0 0 -1 0 856)" gradientUnits="userSpaceOnUse"><stop style="stop-color:#0052cc" offset=".1"/><stop style="stop-color:#0065ff" offset=".6"/></linearGradient><path d="M117.3,51c-33.5,77.1-37.2,167.5-3.7,253.6c20.5,78.3,90.6,146,154.7,176c64.6,29,139,29.2,213.2,5 C592,445.5,706,400.8,817.4,358.3" class="st4"/><linearGradient id="SVGID_5_" x1="54.888" x2="1579.886" y1="496.755" y2="496.755" gradientTransform="matrix(1 0 0 -1 0 856)" gradientUnits="userSpaceOnUse"><stop style="stop-color:#0052cc" offset=".1"/><stop style="stop-color:#0065ff" offset=".6"/></linearGradient><path d="M117.3,51c33.6-77.2,97.1-141.1,183.2-174c89.4-34.2,169.2-33,237.2-1.7S665.7-29.7,707,76.3l110.4,281.9 c44.1,110.8,88.4,224.9,133.6,333.4c32.5,71,82.9,125.6,148,153.6c65.5,26.9,162.8,32.7,234.3-5.3 c86.1-33.7,150.1-97.5,184.1-174.3" class="st5"/></g><g class="st2"><linearGradient id="SVGID_6_" x1="1532.058" x2="2383.991" y1="-496.214" y2="-496.214" gradientTransform="matrix(0.9194 0.3933 0.3933 -0.9194 253.315 -428.8735)" gradientUnits="userSpaceOnUse"><stop style="stop-color:#0052cc" offset=".1"/><stop style="stop-color:#0065ff" offset=".6"/></linearGradient><path d="M1637.9,457.3c-61.1,57.7-100.1,139.3-103.2,231.7c-12,80,25.8,169.8,73,222.7 c48,52.1,116.3,81.5,194.1,88.5c117.3,6.6,239.7,10.4,358.9,15.1" class="st6"/><linearGradient id="SVGID_7_" x1="1559.125" x2="3084.056" y1="-578.452" y2="-578.452" gradientTransform="matrix(0.9194 0.3933 0.3933 -0.9194 253.315 -428.8735)" gradientUnits="userSpaceOnUse"><stop style="stop-color:#0052cc" offset=".1"/><stop style="stop-color:#0065ff" offset=".6"/></linearGradient><path d="M1637.9,457.3c61.2-57.8,144.8-91.5,236.9-87.9c95.7,3.7,168.5,36.3,218.8,91.7 c50.2,55.4,80.3,137.7,76.4,251.5l-9.4,302.6c-3,119.2-7.2,241.6-8.3,359.1c1.9,78,26.9,148.1,75.7,199.4 c49.7,50.5,136.8,94.1,217.5,87.3c92.4,2.9,176.4-30.6,237.9-87.9" class="st7"/></g><g class="st2"><linearGradient id="SVGID_8_" x1="2839.236" x2="4051.796" y1="1590.545" y2="1590.545" gradientTransform="matrix(1 0 0 -1 21.44 1911.83)" gradientUnits="userSpaceOnUse"><stop style="stop-color:#0052cc" offset=".1"/><stop style="stop-color:#0065ff" offset=".6"/></linearGradient><path d="M2949.4,203.6l401.5-155.8c150.7-58.9,275.3-57.6,373.4-16.5c98.2,41.1,176.3,123.4,226.6,250 c48.4,121.9,42.7,249.9-5.8,359.4" class="st8"/><linearGradient id="SVGID_9_" x1="1805.056" x2="3016.694" y1="1823.776" y2="1823.776" gradientTransform="matrix(1 0 0 -1 21.44 1911.83)" gradientUnits="userSpaceOnUse"><stop style="stop-color:#0052cc" offset=".1"/><stop style="stop-color:#0065ff" offset=".6"/></linearGradient><path d="M1953.7-233.4c-47.6,109.6-52.9,238.1-5.3,360.7c29.1,111.4,128.8,207.6,220,250.3 c91.9,41.2,197.7,41.5,303.3,7.1c157.1-57,319.3-120.5,477.7-181.1" class="st9"/><linearGradient id="SVGID_10_" x1="1843.539" x2="4012.431" y1="1706.835" y2="1706.835" gradientTransform="matrix(1 0 0 -1 21.44 1911.83)" gradientUnits="userSpaceOnUse"><stop style="stop-color:#0052cc" offset=".1"/><stop style="stop-color:#0065ff" offset=".6"/></linearGradient><path d="M1953.7-233.4c47.8-109.8,138.1-200.6,260.6-247.5c127.2-48.7,240.7-46.9,337.4-2.4 c96.7,44.4,182,135.2,240.6,286.1l157.1,401c62.7,157.6,125.7,319.9,190.1,474.2c46.2,101,117.9,178.6,210.5,218.4 c93.2,38.3,231.5,46.5,333.2-7.5c122.4-47.9,213.5-138.7,261.9-248" class="st10"/></g><g class="st2"><linearGradient id="SVGID_11_" x1="4747.996" x2="5541.201" y1="-41.498" y2="-41.498" gradientTransform="matrix(-0.7071 0.7071 0.7071 0.7071 6788.0566 -3051.4568)" gradientUnits="userSpaceOnUse"><stop style="stop-color:#0052cc" offset=".1"/><stop style="stop-color:#0065ff" offset=".6"/></linearGradient><path d="M3414.7,372l-113.6,257.8c-42.4,97-100.7,154-165.1,180.4c-64.4,26.4-138.6,24.5-220.4-10.8 c-78.8-34-135.4-95.8-163.6-168.9" class="st11"/><linearGradient id="SVGID_12_" x1="4071.452" x2="4864.111" y1="111.084" y2="111.084" gradientTransform="matrix(-0.7071 0.7071 0.7071 0.7071 6788.0566 -3051.4568)" gradientUnits="userSpaceOnUse"><stop style="stop-color:#0052cc" offset=".1"/><stop style="stop-color:#0065ff" offset=".6"/></linearGradient><path d="M4077.5,113.6c-28.7-72.8-85.7-134.6-164.4-169.3c-65-38.1-155.6-36.5-217.6-14 C3634-46.2,3584.9,2.5,3552,67.3c-46.3,99.1-91.9,203.4-137.2,304.7" class="st12"/><linearGradient id="SVGID_13_" x1="4096.636" x2="5515.464" y1="34.604" y2="34.604" gradientTransform="matrix(-0.7071 0.7071 0.7071 0.7071 6788.0566 -3051.4568)" gradientUnits="userSpaceOnUse"><stop style="stop-color:#0052cc" offset=".1"/><stop style="stop-color:#0065ff" offset=".6"/></linearGradient><path d="M4077.5,113.6c28.7,72.9,28.9,156.7-6,235c-36.3,81.4-89.7,133-154.9,157.2c-65.2,24.2-146.7,21.6-243.6-21 L3414.7,372c-101.8-43.9-206.1-89.8-307.2-131.4c-68.1-25.3-137.2-28.1-198.4-3.6c-60.8,25.4-128.6,85.6-150.7,157.6 c-34.5,78.8-34.6,162.9-6.4,235.9" class="st13"/></g><g class="st2"><linearGradient id="SVGID_14_" x1="2905.882" x2="4055.181" y1="-3269.008" y2="-3269.008" gradientTransform="matrix(0.7071 0.7071 0.7071 -0.7071 163.7233 -3953.4465)" gradientUnits="userSpaceOnUse"><stop style="stop-color:#0052cc" offset=".1"/><stop style="stop-color:#0065ff" offset=".6"/></linearGradient><path d="M45.3,393.5l373.5,164.7C559.3,619.6,641.9,704,680.1,797.4c38.3,93.3,35.4,200.9-15.7,319.4 c-49.2,114.2-138.9,196.1-244.7,237" class="st14"/><linearGradient id="SVGID_15_" x1="1925.63" x2="3074.119" y1="-3047.957" y2="-3047.957" gradientTransform="matrix(0.7071 0.7071 0.7071 -0.7071 163.7233 -3953.4465)" gradientUnits="userSpaceOnUse"><stop style="stop-color:#0052cc" offset=".1"/><stop style="stop-color:#0065ff" offset=".6"/></linearGradient><path d="M-329.2-566.8c-105.4,41.5-195.1,124.2-245.3,238.2c-55.1,94.1-52.8,225.5-20.3,315.2 c34,89.2,104.7,160.3,198.5,208c143.5,67.1,294.8,133.2,441.5,198.8" class="st15"/><linearGradient id="SVGID_16_" x1="1962.106" x2="4017.881" y1="-3158.768" y2="-3158.768" gradientTransform="matrix(0.7071 0.7071 0.7071 -0.7071 163.7233 -3953.4465)" gradientUnits="userSpaceOnUse"><stop style="stop-color:#0052cc" offset=".1"/><stop style="stop-color:#0065ff" offset=".6"/></linearGradient><path d="M-329.2-566.8c105.6-41.6,227.1-41.9,340.6,8.8c117.9,52.6,192.7,129.9,227.8,224.5s31.4,212.6-30.4,353 l-163.5,374C-18.3,541.1-84.9,692.2-145.1,838.7c-36.7,98.6-40.7,198.8-5.3,287.5c36.8,88.1,124,186.3,228.3,218.3 c114.1,50,236,50.1,341.8,9.3" class="st16"/></g></g></g></svg>