<?xml version="1.0" encoding="utf-8"?>
<!-- Generator: Adobe Illustrator 22.0.1, SVG Export Plug-In . SVG Version: 6.00 Build 0)  -->
<svg version="1.1" id="Layer_1" xmlns="http://www.w3.org/2000/svg" xmlns:xlink="http://www.w3.org/1999/xlink" x="0px" y="0px"
	 viewBox="0 0 3840 854" style="enable-background:new 0 0 3840 854;" xml:space="preserve">
<style type="text/css">
	.st0{fill:#172B4D;}
	.st1{opacity:0.5;}
	.st2{clip-path:url(#SVGID_2_);}
	.st3{fill:none;stroke:#B3F5FF;stroke-width:5;stroke-miterlimit:10;}
	.st4{fill:#B3F5FF;stroke:#B3F5FF;stroke-width:5;stroke-miterlimit:10;}
	.st5{fill:#00B8D9;}
	.st6{fill:none;stroke:#B3F5FF;stroke-width:7.58;stroke-linecap:round;stroke-linejoin:round;}
	.st7{fill:none;stroke:#B3F5FF;stroke-width:7.58;stroke-linejoin:round;}
</style>
<title>Artboard 1 copy 6</title>
<g id="BG">
	<rect class="st0" width="3840" height="854"/>
</g>
<g id="Layer_3">
	<g class="st1">
		<g>
			<defs>
				<rect id="SVGID_1_" y="-0.6" width="3840" height="855.1"/>
			</defs>
			<clipPath id="SVGID_2_">
				<use xlink:href="#SVGID_1_"  style="overflow:visible;"/>
			</clipPath>
			<g class="st2">
				<line class="st3" x1="1390.6" y1="406.6" x2="1468.4" y2="350.1"/>
				<circle class="st4" cx="1468.4" cy="350.1" r="17.7"/>
				<circle class="st4" cx="1185.4" cy="268.6" r="17.7"/>
				<circle class="st4" cx="1098.4" cy="410.4" r="17.7"/>
				<line class="st3" x1="1185.4" y1="268.6" x2="1211.4" y2="385.1"/>
				<line class="st3" x1="1211.4" y1="385.1" x2="1098" y2="410.4"/>
				<line class="st3" x1="1303.2" y1="413.6" x2="1211.4" y2="385.1"/>
				<circle class="st4" cx="1211.4" cy="385.1" r="17.7"/>
				<line class="st3" x1="3343.2" y1="565.5" x2="3265.4" y2="621.9"/>
				<circle class="st4" cx="3265.4" cy="621.9" r="17.7"/>
				<circle class="st4" cx="3490.7" cy="740.7" r="17.7"/>
				<circle class="st4" cx="3649.1" cy="689.4" r="17.7"/>
				<line class="st3" x1="3490.7" y1="740.7" x2="3546.7" y2="635.2"/>
				<line class="st3" x1="3546.7" y1="635.2" x2="3649.3" y2="689.6"/>
				<line class="st3" x1="3495.4" y1="553.9" x2="3546.7" y2="635.2"/>
				<circle class="st4" cx="3546.7" cy="635.2" r="17.7"/>
				<circle class="st4" cx="31.9" cy="668.1" r="17.7"/>
				<line class="st3" x1="31.9" y1="668.1" x2="57.9" y2="784.7"/>
				<line class="st3" x1="57.9" y1="784.7" x2="-55.5" y2="810"/>
				<line class="st3" x1="149.7" y1="813.2" x2="57.9" y2="784.7"/>
				<circle class="st4" cx="57.9" cy="784.7" r="17.7"/>
				<path class="st5" d="M121.2,323.5h153.6c3.8,0,6.8,3.1,6.8,6.8v153.6c0,3.8-3.1,6.8-6.8,6.8H121.2c-3.8,0-6.8-3.1-6.8-6.8V330.3
					C114.4,326.5,117.4,323.5,121.2,323.5z"/>
				<path class="st5" d="M121.2,512.3h153.6c3.8,0,6.8,3.1,6.8,6.8v153.6c0,3.8-3.1,6.8-6.8,6.8H121.2c-3.8,0-6.8-3.1-6.8-6.8V519.1
					C114.4,515.3,117.4,512.3,121.2,512.3z"/>
				<path class="st5" d="M121.2,701.1h153.6c3.8,0,6.8,3.1,6.8,6.8v153.6c0,3.8-3.1,6.8-6.8,6.8H121.2c-3.8,0-6.8-3.1-6.8-6.8V707.9
					C114.4,704.2,117.4,701.1,121.2,701.1z"/>
				<path class="st5" d="M310,512.3h153.6c3.8,0,6.8,3.1,6.8,6.8v153.6c0,3.8-3.1,6.8-6.8,6.8H310c-3.8,0-6.8-3.1-6.8-6.8V519.1
					C303.2,515.3,306.3,512.3,310,512.3z"/>
				<path class="st5" d="M310,701.1h153.6c3.8,0,6.8,3.1,6.8,6.8v153.6c0,3.8-3.1,6.8-6.8,6.8H310c-3.8,0-6.8-3.1-6.8-6.8V707.9
					C303.2,704.2,306.3,701.1,310,701.1z"/>
				<path class="st5" d="M498.8,701.1h153.6c3.8,0,6.8,3.1,6.8,6.8v153.6c0,3.8-3.1,6.8-6.8,6.8H498.8c-3.8,0-6.8-3.1-6.8-6.8V707.9
					C492,704.2,495.1,701.1,498.8,701.1z"/>
				<path class="st5" d="M687.7,701.1h153.6c3.8,0,6.8,3.1,6.8,6.8v153.6c0,3.8-3.1,6.8-6.8,6.8H687.7c-3.8,0-6.8-3.1-6.8-6.8V707.9
					C680.8,704.2,683.9,701.1,687.7,701.1z"/>
				<path class="st5" d="M876.5,701.1h153.6c3.8,0,6.8,3.1,6.8,6.8v153.6c0,3.8-3.1,6.8-6.8,6.8H876.5c-3.8,0-6.8-3.1-6.8-6.8V707.9
					C869.7,704.2,872.7,701.1,876.5,701.1z"/>
				<path class="st5" d="M1065.3,512.3h153.6c3.8,0,6.8,3.1,6.8,6.8v153.6c0,3.8-3.1,6.8-6.8,6.8h-153.6c-3.8,0-6.8-3.1-6.8-6.8
					V519.1C1058.5,515.3,1061.5,512.3,1065.3,512.3z"/>
				<path class="st5" d="M1065.3,701.1h153.6c3.8,0,6.8,3.1,6.8,6.8v153.6c0,3.8-3.1,6.8-6.8,6.8h-153.6c-3.8,0-6.8-3.1-6.8-6.8
					V707.9C1058.5,704.2,1061.5,701.1,1065.3,701.1z"/>
				<path class="st5" d="M1254.1,323.5h153.6c3.8,0,6.8,3.1,6.8,6.8v153.6c0,3.8-3.1,6.8-6.8,6.8h-153.6c-3.8,0-6.8-3.1-6.8-6.8
					V330.3C1247.3,326.5,1250.4,323.5,1254.1,323.5z"/>
				<path class="st5" d="M809.8,80h153.6c3.8,0,6.8,3.1,6.8,6.8v153.6c0,3.8-3.1,6.8-6.8,6.8H809.8c-3.8,0-6.8-3.1-6.8-6.8V86.8
					C803,83.1,806,80,809.8,80z"/>
				<path class="st5" d="M1254.1,512.3h153.6c3.8,0,6.8,3.1,6.8,6.8v153.6c0,3.8-3.1,6.8-6.8,6.8h-153.6c-3.8,0-6.8-3.1-6.8-6.8
					V519.1C1247.3,515.3,1250.4,512.3,1254.1,512.3z"/>
				<path class="st5" d="M2371.2,600.8h153.6c3.8,0,6.8,3.1,6.8,6.8v153.6c0,3.8-3.1,6.8-6.8,6.8h-153.6c-3.8,0-6.8-3.1-6.8-6.8
					V607.6C2364.4,603.9,2367.5,600.8,2371.2,600.8z"/>
				<path class="st5" d="M2371.2,411h153.6c3.8,0,6.8,3.1,6.8,6.8v153.6c0,3.8-3.1,6.8-6.8,6.8h-153.6c-3.8,0-6.8-3.1-6.8-6.8V417.9
					C2364.4,414.1,2367.5,411,2371.2,411z"/>
				<path class="st5" d="M3046.1-155.4h153.6c3.8,0,6.8,3.1,6.8,6.8V5c0,3.8-3.1,6.8-6.8,6.8h-153.6c-3.8,0-6.8-3.1-6.8-6.8v-153.6
					C3039.3-152.4,3042.3-155.4,3046.1-155.4z"/>
				<path class="st5" d="M3046.1,33.4h153.6c3.8,0,6.8,3.1,6.8,6.8v153.6c0,3.8-3.1,6.8-6.8,6.8h-153.6c-3.8,0-6.8-3.1-6.8-6.8V40.2
					C3039.3,36.5,3042.3,33.4,3046.1,33.4z"/>
				<path class="st5" d="M3046.1,222.2h153.6c3.8,0,6.8,3.1,6.8,6.8v153.6c0,3.8-3.1,6.8-6.8,6.8h-153.6c-3.8,0-6.8-3.1-6.8-6.8
					V229.1C3039.3,225.3,3042.3,222.2,3046.1,222.2z"/>
				<path class="st5" d="M3046.1,411h153.6c3.8,0,6.8,3.1,6.8,6.8v153.6c0,3.8-3.1,6.8-6.8,6.8h-153.6c-3.8,0-6.8-3.1-6.8-6.8V417.9
					C3039.3,414.1,3042.3,411,3046.1,411z"/>
				<path class="st5" d="M2857.3,411h153.6c3.8,0,6.8,3.1,6.8,6.8v153.6c0,3.8-3.1,6.8-6.8,6.8h-153.6c-3.8,0-6.8-3.1-6.8-6.8V417.9
					C2850.5,414.1,2853.5,411,2857.3,411z"/>
				<path class="st5" d="M2857.3,600.8h153.6c3.8,0,6.8,3.1,6.8,6.8v153.6c0,3.8-3.1,6.8-6.8,6.8h-153.6c-3.8,0-6.8-3.1-6.8-6.8
					V607.6C2850.5,603.9,2853.5,600.8,2857.3,600.8z"/>
				<path class="st5" d="M3234.9,33.4h153.6c3.8,0,6.8,3.1,6.8,6.8v153.6c0,3.8-3.1,6.8-6.8,6.8h-153.6c-3.8,0-6.8-3.1-6.8-6.8V40.2
					C3228.1,36.5,3231.2,33.4,3234.9,33.4z"/>
				<path class="st5" d="M3234.9,222.2h153.6c3.8,0,6.8,3.1,6.8,6.8v153.6c0,3.8-3.1,6.8-6.8,6.8h-153.6c-3.8,0-6.8-3.1-6.8-6.8
					V229.1C3228.1,225.3,3231.2,222.2,3234.9,222.2z"/>
				<path class="st5" d="M3234.9,411h153.6c3.8,0,6.8,3.1,6.8,6.8v153.6c0,3.8-3.1,6.8-6.8,6.8h-153.6c-3.8,0-6.8-3.1-6.8-6.8V417.9
					C3228.1,414.1,3231.2,411,3234.9,411z"/>
				<path class="st5" d="M3423.8,222.2h153.6c3.8,0,6.8,3.1,6.8,6.8v153.6c0,3.8-3.1,6.8-6.8,6.8h-153.6c-3.8,0-6.8-3.1-6.8-6.8
					V229.1C3416.9,225.3,3420,222.2,3423.8,222.2z"/>
				<path class="st5" d="M3423.8,411h153.6c3.8,0,6.8,3.1,6.8,6.8v153.6c0,3.8-3.1,6.8-6.8,6.8h-153.6c-3.8,0-6.8-3.1-6.8-6.8V417.9
					C3416.9,414.1,3420,411,3423.8,411z"/>
				<path class="st5" d="M3612.6,222.2h153.6c3.8,0,6.8,3.1,6.8,6.8v153.6c0,3.8-3.1,6.8-6.8,6.8h-153.6c-3.8,0-6.8-3.1-6.8-6.8
					V229.1C3605.8,225.3,3608.8,222.2,3612.6,222.2z"/>
				<path class="st5" d="M3612.6,411h153.6c3.8,0,6.8,3.1,6.8,6.8v153.6c0,3.8-3.1,6.8-6.8,6.8h-153.6c-3.8,0-6.8-3.1-6.8-6.8V417.9
					C3605.8,414.1,3608.8,411,3612.6,411z"/>
				<path class="st5" d="M3801.4,222.2H3955c3.8,0,6.8,3.1,6.8,6.8v153.6c0,3.8-3.1,6.8-6.8,6.8h-153.6c-3.8,0-6.8-3.1-6.8-6.8
					V229.1C3794.6,225.3,3797.6,222.2,3801.4,222.2z"/>
				<path class="st5" d="M3801.4,411H3955c3.8,0,6.8,3.1,6.8,6.8v153.6c0,3.8-3.1,6.8-6.8,6.8h-153.6c-3.8,0-6.8-3.1-6.8-6.8V417.9
					C3794.6,414.1,3797.6,411,3801.4,411z"/>
				<polyline class="st6" points="3683.7,351.5 3683.7,303.2 3727.4,259.6 				"/>
				<line class="st6" x1="3672.6" y1="291.4" x2="3650.2" y2="269"/>
				<line class="st6" x1="3711.1" y1="259.6" x2="3727.4" y2="259.6"/>
				<line class="st6" x1="3727.4" y1="259.6" x2="3727.4" y2="278.4"/>
				<path class="st6" d="M669.2,67.6l0.3-68.1c0-4.8-3.9-8.8-8.7-8.8c0,0,0,0,0,0l0,0c-4.8,0-8.8,3.9-8.8,8.7c0,0,0,0,0,0l-0.2,38.7
					"/>
				<path class="st6" d="M685,38.3l0.2-39.6c0.1-13.3-10.7-24.2-24-24.2c0,0,0,0,0,0l0,0c-13.3-0.1-24.1,10.7-24.2,24l-0.3,69"/>
				<path class="st6" d="M651.9,38.1l-0.2,32.5c0,9.1,7.3,16.6,16.5,16.6l0,0c9.1,0,16.6-7.3,16.6-16.5c0,0,0,0,0,0l0.2-32.5"/>
				<polygon class="st7" points="3664.3,125.4 3648.4,144.1 3616.6,144.1 3648.4,106.8 				"/>
				<polygon class="st7" points="3751,144.1 3648.4,144.1 3664.3,125.4 3699.7,83.9 				"/>
				<circle class="st7" cx="3648.4" cy="75.3" r="9.8"/>
				<path class="st7" d="M818.8,786c0,0-23.2,33.3-51.8,33.3S715.2,786,715.2,786s23.2-33.3,51.8-33.3S818.8,786,818.8,786z"/>
				<circle class="st7" cx="767" cy="786" r="18.9"/>
				<path class="st6" d="M118.6,426.2L118.6,426.2c-7.8-7.8-7.8-20.3,0-28.1c0,0,0,0,0,0l16.1-16.1c7.8-7.8,20.3-7.8,28.1,0
					c0,0,0,0,0,0l0,0c7.8,7.8,7.8,20.3,0,28.1l-16.1,16.1"/>
				<path class="st6" d="M128.3,416.6L128.3,416.6c7.8,7.8,7.8,20.3,0,28.1l-16.1,16.1c-7.8,7.8-20.3,7.8-28.1,0l0,0
					c-7.8-7.8-7.8-20.3,0-28.1c0,0,0,0,0,0l16.1-16.1"/>
				<line class="st6" x1="3309.7" y1="65.8" x2="3329.9" y2="86.1"/>
				<line class="st6" x1="3309.6" y1="65.8" x2="3289.4" y2="86.1"/>
				<polyline class="st6" points="3322.7,105 3340.1,105 3340.1,165.9 3279.2,165.9 3279.2,105 3296.6,105 				"/>
				<line class="st6" x1="3309.7" y1="135.4" x2="3309.7" y2="65.8"/>
				<polygon class="st7" points="3106.6,552.3 3065.1,510.8 3121.6,454.3 3168.4,448.9 3163,495.8 				"/>
				<circle class="st7" cx="3143.2" cy="474.2" r="7.5"/>
				<rect x="1291.5" y="561.7" class="st7" width="79.5" height="79.5"/>
				<line class="st7" x1="1291.5" y1="583.8" x2="1371" y2="583.8"/>
				<line class="st6" x1="1310.7" y1="551.4" x2="1310.7" y2="572"/>
				<line class="st6" x1="1351.8" y1="551.4" x2="1351.8" y2="572"/>
				<line class="st6" x1="1310.7" y1="583.8" x2="1310.7" y2="641.1"/>
				<line class="st6" x1="1331.2" y1="583.8" x2="1331.2" y2="641.1"/>
				<line class="st6" x1="1351.8" y1="583.8" x2="1351.8" y2="641.1"/>
				<line class="st7" x1="1291.5" y1="612.5" x2="1371" y2="612.5"/>
				<polygon class="st7" points="3331,686.6 3347.5,720.2 3384.6,725.6 3357.8,751.7 3364.1,788.5 3331,771.1 3297.8,788.5 
					3304.2,751.7 3277.4,725.6 3314.4,720.2 				"/>
			</g>
		</g>
	</g>
</g>
</svg>
