<svg xmlns="http://www.w3.org/2000/svg" xmlns:svg="http://www.w3.org/2000/svg" id="Capa_1" width="16" height="16" x="0" style="enable-background:new 0 0 612 612" y="0" version="1.1" viewBox="0 0 612 612" xml:space="preserve"><metadata id="metadata41"/><g id="g4" transform="matrix(0.85,0,0,0.85,45.9,45.9)"><path id="path2" d="M 604.717,143.795 472.05,18.402 c -3.745,-3.529 -8.905,-5.661 -15.783,-5.661 H 22.247 C 9.708,12.741 0,22.449 0,34.988 v 542.025 c 0,12.538 9.708,22.246 22.247,22.246 h 567.507 c 12.538,0 22.246,-9.708 22.246,-22.246 V 160.38 c 0,-6.877 -2.692,-12.245 -7.283,-16.585 z M 271.012,57.64 h 75.24 v 126.609 h -75.24 z M 567.507,554.36 H 44.493 V 57.64 h 92.23 V 233.997 H 398.424 V 57.64 h 49.757 L 567.507,169.286 V 554.36 Z" style="fill:#424242"/></g></svg>