<svg xmlns="http://www.w3.org/2000/svg" xmlns:xlink="http://www.w3.org/1999/xlink" viewBox="0 0 3592.83 854"><defs><style>.cls-1,.cls-10,.cls-8{fill:none}.cls-2{fill:#79e2f2}.cls-11,.cls-12,.cls-13,.cls-14,.cls-15,.cls-16,.cls-17,.cls-18,.cls-19,.cls-20,.cls-21,.cls-22,.cls-25,.cls-26,.cls-27,.cls-28,.cls-29,.cls-3,.cls-7,.cls-9{fill:#b3f5ff}.cls-4{fill:#172b4d}.cls-5{opacity:.7}.cls-6{clip-path:url(#clip-path)}.cls-10,.cls-11,.cls-12,.cls-13,.cls-14,.cls-15,.cls-16,.cls-17,.cls-18,.cls-19,.cls-20,.cls-21,.cls-22,.cls-25,.cls-26,.cls-27,.cls-28,.cls-29,.cls-7,.cls-8,.cls-9{stroke-miterlimit:10}.cls-11,.cls-12,.cls-13,.cls-14,.cls-15,.cls-16,.cls-17,.cls-18,.cls-19,.cls-20,.cls-21,.cls-22,.cls-25,.cls-26,.cls-27,.cls-28,.cls-29,.cls-7,.cls-8,.cls-9{stroke-width:11.85px}.cls-7{stroke:url(#linear-gradient)}.cls-12,.cls-8{stroke:#b3f5ff}.cls-9{stroke:url(#linear-gradient-2)}.cls-10{stroke:#79e2f2;stroke-width:18.16px}.cls-11{stroke:url(#linear-gradient-3)}.cls-13{stroke:url(#linear-gradient-4)}.cls-14{stroke:url(#linear-gradient-5)}.cls-15{stroke:url(#linear-gradient-6)}.cls-16{stroke:url(#linear-gradient-7)}.cls-17{stroke:url(#linear-gradient-8)}.cls-18{stroke:url(#linear-gradient-9)}.cls-19{stroke:url(#linear-gradient-10)}.cls-20{stroke:url(#linear-gradient-11)}.cls-21{stroke:url(#linear-gradient-12)}.cls-22{stroke:url(#linear-gradient-13)}.cls-23{clip-path:url(#clip-path-2)}.cls-24{clip-path:url(#clip-path-3)}.cls-25{stroke:url(#linear-gradient-14)}.cls-26{stroke:url(#linear-gradient-15)}.cls-27{stroke:url(#linear-gradient-16)}.cls-28{stroke:url(#linear-gradient-17)}.cls-29{stroke:url(#linear-gradient-18)}.cls-30{clip-path:url(#clip-path-4)}.cls-31{clip-path:url(#clip-path-5)}</style><clipPath id="clip-path"><rect id="_Rectangle_" width="3838.08" height="855.11" class="cls-1" data-name="&lt;Rectangle&gt;"/></clipPath><linearGradient id="linear-gradient" x1="2454.24" x2="2854.69" y1="133.62" y2="133.62" gradientUnits="userSpaceOnUse"><stop offset=".23" stop-color="#79e2f2"/><stop offset="1" stop-color="#b3f5ff"/></linearGradient><linearGradient id="linear-gradient-2" x1="1965.3" x2="1965.3" y1="154.88" y2="-35.86" gradientUnits="userSpaceOnUse"><stop offset=".24" stop-color="#79e2f2"/><stop offset="1" stop-color="#b3f5ff"/></linearGradient><linearGradient id="linear-gradient-3" x1="-31.48" x2="436.85" y1="60.1" y2="60.1" xlink:href="#linear-gradient"/><linearGradient id="linear-gradient-4" x1="434.95" x2="715.11" y1="78.86" y2="78.86" gradientUnits="userSpaceOnUse"><stop offset="0" stop-color="#b3f5ff"/><stop offset=".76" stop-color="#79e2f2"/></linearGradient><linearGradient id="linear-gradient-5" x1="136.68" x2="492.58" y1="651.79" y2="651.79" xlink:href="#linear-gradient-2"/><linearGradient id="linear-gradient-6" x1="487.56" x2="760.43" y1="738.85" y2="738.85" xlink:href="#linear-gradient-4"/><linearGradient id="linear-gradient-7" x1="900.8" x2="1335.89" y1="259.7" y2="259.7" xlink:href="#linear-gradient-2"/><linearGradient id="linear-gradient-8" x1="131.92" x2="217.78" y1="490.1" y2="490.1" xlink:href="#linear-gradient-2"/><linearGradient id="linear-gradient-9" x1="1386.12" x2="1752.08" y1="818.32" y2="818.32" xlink:href="#linear-gradient-2"/><linearGradient id="linear-gradient-10" x1="752.31" x2="995.96" y1="741.81" y2="741.81" xlink:href="#linear-gradient-2"/><linearGradient id="linear-gradient-11" x1="1037.55" x2="1522.7" y1="542.57" y2="542.57" gradientTransform="matrix(0.71, 0.28, -0.34, 0.94, 445.95, -185.5)" xlink:href="#linear-gradient-4"/><linearGradient id="linear-gradient-12" x1="2118.34" x2="2210.29" y1="191.78" y2="191.78" gradientTransform="matrix(0.61, 0.79, -0.8, 0.62, 1197.18, -1470.67)" xlink:href="#linear-gradient-2"/><linearGradient id="linear-gradient-13" x1="1332.74" x2="1970.05" y1="148.16" y2="148.16" xlink:href="#linear-gradient-4"/><clipPath id="clip-path-2"><circle id="_Ellipse_" cx="714.22" cy="57.54" r="63.97" class="cls-2" data-name="&lt;Ellipse&gt;"/></clipPath><clipPath id="clip-path-3"><circle id="_Ellipse_2" cx="1356.21" cy="735.3" r="63.97" class="cls-2" data-name="&lt;Ellipse&gt;"/></clipPath><linearGradient id="linear-gradient-14" x1="2852.79" x2="3321.12" y1="60.1" y2="60.1" xlink:href="#linear-gradient"/><linearGradient id="linear-gradient-15" x1="3319.22" x2="3599.38" y1="78.86" y2="78.86" xlink:href="#linear-gradient-4"/><linearGradient id="linear-gradient-16" x1="3020.95" x2="3376.84" y1="651.79" y2="651.79" xlink:href="#linear-gradient-2"/><linearGradient id="linear-gradient-17" x1="3371.83" x2="3644.69" y1="738.85" y2="738.85" xlink:href="#linear-gradient-4"/><linearGradient id="linear-gradient-18" x1="3016.19" x2="3102.05" y1="490.1" y2="490.1" xlink:href="#linear-gradient-2"/><clipPath id="clip-path-4"><circle id="_Ellipse_3" cx="2596.48" cy="650.04" r="63.97" class="cls-2" data-name="&lt;Ellipse&gt;"/></clipPath><clipPath id="clip-path-5"><circle id="_Ellipse_4" cx="2457.09" cy="242.33" r="104.24" class="cls-3" data-name="&lt;Ellipse&gt;"/></clipPath></defs><title>Artboard 32</title><g id="BG"><rect id="_Rectangle_2" width="3840" height="854" class="cls-4" data-name="&lt;Rectangle&gt;"/></g><g id="Layer_3" data-name="Layer 3"><g class="cls-5"><g class="cls-6"><line x1="2457.09" x2="2851.83" y1="242.33" y2="24.92" class="cls-7"/><line x1="2277.83" x2="2597.63" y1="484.34" y2="651.58" class="cls-8"/><line x1="1968.66" x2="1961.95" y1="154.67" y2="-35.65" class="cls-9"/><circle cx="435.85" cy="858.3" r="21.32" class="cls-3"/><circle cx="903.75" cy="382.5" r="8.53" class="cls-3"/><circle cx="1444.69" cy="325.25" r="20.53" class="cls-3"/><circle cx="2277.83" cy="484.34" r="20.53" class="cls-3"/><circle cx="2157.75" cy="783.25" r="21.32" class="cls-3"/><circle cx="1332.95" cy="136.9" r="21.32" class="cls-3"/><line x1="-30.47" x2="137.73" y1="38.19" y2="683.77" class="cls-10"/><line x1="-30.47" x2="435.85" y1="20.03" y2="100.18" class="cls-11"/><circle cx="-30.47" cy="20.03" r="104.24" class="cls-2"/><line x1="137.73" x2="-77.46" y1="683.77" y2="912" class="cls-10"/><line x1="435.85" x2="211.97" y1="100.18" y2="296.42" class="cls-12"/><line x1="714.22" x2="435.85" y1="57.54" y2="100.18" class="cls-13"/><line x1="137.73" x2="491.52" y1="683.77" y2="619.81" class="cls-14"/><line x1="756.47" x2="491.52" y1="857.9" y2="619.81" class="cls-15"/><line x1="1363.63" x2="1314.56" y1="721.89" y2="1012.45" class="cls-10"/><line x1="714.22" x2="903.75" y1="57.54" y2="382.5" class="cls-10"/><line x1="1332.95" x2="903.75" y1="136.9" y2="382.5" class="cls-16"/><line x1="211.97" x2="137.73" y1="296.42" y2="683.77" class="cls-17"/><line x1="211.97" x2="491.52" y1="296.42" y2="619.81" class="cls-12"/><line x1="2597.63" x2="2457.09" y1="651.58" y2="242.33" class="cls-10"/><line x1="1969.85" x2="2457.09" y1="159.41" y2="242.33" class="cls-10"/><line x1="2156.21" x2="2419.21" y1="777.15" y2="933.07" class="cls-12"/><line x1="1388.06" x2="1750.13" y1="755.53" y2="881.1" class="cls-18"/><line x1="2588.54" x2="2566.21" y1="650.92" y2="890.02" class="cls-12"/><line x1="527.85" x2="491.52" y1="375.79" y2="619.81" class="cls-8"/><line x1="435.85" x2="491.52" y1="858.3" y2="619.81" class="cls-8"/><line x1="991.8" x2="756.47" y1="625.73" y2="857.9" class="cls-19"/><line x1="1342.93" x2="991.8" y1="734.4" y2="625.73" class="cls-20"/><line x1="903.75" x2="991.8" y1="382.5" y2="625.73" class="cls-10"/><line x1="2457.09" x2="2277.83" y1="242.33" y2="484.34" class="cls-21"/><line x1="1332.95" x2="1969.85" y1="136.9" y2="159.41" class="cls-22"/><circle cx="491.32" cy="619.61" r="21.32" class="cls-3"/><circle cx="526.35" cy="381.39" r="23.61" class="cls-3"/><circle cx="211.97" cy="296.42" r="21.32" class="cls-3"/><circle cx="991.8" cy="625.73" r="21.32" class="cls-3"/><circle cx="435.85" cy="100.18" r="21.32" class="cls-3"/><circle cx="137.73" cy="683.77" r="63.97" class="cls-2"/><circle cx="756.47" cy="857.9" r="63.97" class="cls-2"/><circle id="_Ellipse_5" cx="714.22" cy="57.54" r="63.97" class="cls-2" data-name="&lt;Ellipse&gt;"/><g class="cls-23"><path d="M736.08,75.37a34.47,34.47,0,1,0-44.36-.18A18.18,18.18,0,0,1,698.19,89h0A18,18,0,0,1,687,105.73a71.72,71.72,0,0,0-21.68,13.83L714,141.13l48.72-21.57a71.44,71.44,0,0,0-21.57-13.78A18.14,18.14,0,0,1,729.82,89,17.74,17.74,0,0,1,736.08,75.37Z" class="cls-3"/></g><circle cx="899.01" cy="372.23" r="45.8" class="cls-2"/><line x1="1332.95" x2="1316.76" y1="136.9" y2="-23.01" class="cls-12"/><circle id="_Ellipse_6" cx="1356.21" cy="735.3" r="63.97" class="cls-2" data-name="&lt;Ellipse&gt;"/><g class="cls-24"><path d="M1376.25,754.38a31.73,31.73,0,1,0-40.84-.16,16.69,16.69,0,0,1,6,12.74h0A16.59,16.59,0,0,1,1331,782.33a66.17,66.17,0,0,0-20,12.73l44.86,19.87,44.86-19.87a66.14,66.14,0,0,0-19.85-12.68A16.7,16.7,0,0,1,1370.49,767,16.36,16.36,0,0,1,1376.25,754.38Z" class="cls-3"/><path d="M1324.93,775a4.77,4.77,0,0,1-4.18-7,26.71,26.71,0,0,0,3-12.44V732c0-17.62,14.4-32.94,32-33a31.93,31.93,0,0,1,23.68,10.3,33.22,33.22,0,0,1,8.56,22.65v23.63a26.92,26.92,0,0,0,3,12.46,4.77,4.77,0,0,1-4.18,7Z" class="cls-3"/></g><circle cx="1968.66" cy="154.67" r="63.97" class="cls-2"/><line x1="1332.95" x2="1444.69" y1="136.9" y2="325.25" class="cls-12"/><line x1="2157.75" x2="2277.83" y1="783.25" y2="484.34" class="cls-8"/><circle cx="3320.12" cy="858.3" r="21.32" class="cls-3"/><line x1="2457.09" x2="3022" y1="242.33" y2="683.77" class="cls-10"/><line x1="2853.8" x2="3320.12" y1="20.03" y2="100.18" class="cls-25"/><line x1="3022" x2="2806.81" y1="683.77" y2="912" class="cls-10"/><line x1="3320.12" x2="3096.23" y1="100.18" y2="296.42" class="cls-12"/><line x1="3320.12" x2="3410.62" y1="100.18" y2="381.39" class="cls-12"/><line x1="3598.49" x2="3320.12" y1="57.54" y2="100.18" class="cls-26"/><line x1="3022" x2="3375.79" y1="683.77" y2="619.81" class="cls-27"/><line x1="3640.73" x2="3375.79" y1="857.9" y2="619.81" class="cls-28"/><line x1="3598.49" x2="3788.01" y1="57.54" y2="382.5" class="cls-10"/><line x1="3096.23" x2="3022" y1="296.42" y2="683.77" class="cls-29"/><line x1="3096.23" x2="3375.79" y1="296.42" y2="619.81" class="cls-12"/><line x1="2146.33" x2="1673.71" y1="793.69" y2="907.33" class="cls-8"/><line x1="3320.12" x2="3375.79" y1="858.3" y2="619.81" class="cls-8"/><circle cx="3375.59" cy="619.61" r="21.32" class="cls-3"/><circle cx="3410.62" cy="381.39" r="23.61" class="cls-3"/><circle cx="3096.23" cy="296.42" r="21.32" class="cls-3"/><circle cx="3320.12" cy="100.18" r="21.32" class="cls-3"/><circle cx="3022" cy="683.77" r="63.97" class="cls-2"/><circle cx="3640.73" cy="857.9" r="63.97" class="cls-2"/><circle id="_Ellipse_7" cx="2596.48" cy="650.04" r="63.97" class="cls-2" data-name="&lt;Ellipse&gt;"/><g class="cls-30"><path d="M2616.32,660.06a31.72,31.72,0,1,0-40.83-.16,16.72,16.72,0,0,1,6,12.74h0A16.62,16.62,0,0,1,2571.1,688a66.1,66.1,0,0,0-20,12.73L2596,720.61l44.87-19.86A66.14,66.14,0,0,0,2621,688.06a16.69,16.69,0,0,1-10.45-15.42A16.39,16.39,0,0,1,2616.32,660.06Z" class="cls-3"/><path d="M2565,680.69a4.76,4.76,0,0,1-4.18-7,26.88,26.88,0,0,0,3-12.44V637.63c0-17.62,14.4-32.94,32-33a31.93,31.93,0,0,1,23.68,10.3,33.17,33.17,0,0,1,8.56,22.65v23.64a26.92,26.92,0,0,0,3,12.45,4.77,4.77,0,0,1-4.19,7Z" class="cls-3"/></g><circle cx="2851.83" cy="24.92" r="63.97" class="cls-2"/><circle id="_Ellipse_8" cx="2457.09" cy="242.33" r="104.24" class="cls-3" data-name="&lt;Ellipse&gt;"/><g class="cls-31"><path d="M2489.59,268.94a50.88,50.88,0,1,0-65.48-.27,26.84,26.84,0,0,1,9.55,20.43h0a26.64,26.64,0,0,1-16.58,24.66,106,106,0,0,0-32,20.41L2457,366l71.93-31.84a106,106,0,0,0-31.84-20.35,26.75,26.75,0,0,1-16.75-24.72A26.19,26.19,0,0,1,2489.59,268.94Z" class="cls-2"/><path d="M2407.3,302a7.66,7.66,0,0,1-6.7-11.29,43,43,0,0,0,4.89-20V233c0-28.25,23.09-52.82,51.34-52.91a51.19,51.19,0,0,1,38,16.5c9.1,9.81,13.72,23,13.72,36.33v37.89a43.25,43.25,0,0,0,4.86,20,7.65,7.65,0,0,1-6.71,11.26Z" class="cls-2"/></g></g></g></g></svg>