<svg xmlns="http://www.w3.org/2000/svg" xmlns:xlink="http://www.w3.org/1999/xlink" width="16" height="16" version="1.1" viewBox="0 0 16 16"><title>playground</title><desc>Created with Sketch.</desc><g id="Page-1" fill="none" fill-rule="evenodd" stroke="none" stroke-width="1"><g id="Group-5" transform="translate(1.800000, 3.700000)"><rect id="Rectangle" width="4" height="4" x=".4" y="0" fill="#939393" rx="2"/><rect id="Rectangle" width="3.6" height="3.6" x="6.6" y=".2" fill="#767676"/><polygon id="Path-2" fill="#767676" points="0 10.035 2.386 6 4.797 10.035"/><path id="Path" fill="#000" d="M8.39493748,5.50010038 C8.34742536,5.50209403 8.30617866,5.5334641 8.29156209,5.57872227 L7.75633846,7.2375013 L6.01385457,7.23405811 C5.96454533,7.23396849 5.92080471,7.26569267 5.90556871,7.31259562 C5.89033272,7.35949858 5.90707833,7.41087664 5.94702476,7.43978901 L7.35895627,8.46152016 L6.81682921,10.1185833 C6.80151169,10.1654536 6.81816021,10.2168555 6.85804656,10.245841 C6.89793291,10.2748264 6.95195691,10.2747822 6.99179578,10.2457315 L8.39971591,9.21826168 L9.80822126,10.2457485 C9.84806307,10.2747913 9.90208421,10.2748281 9.94196554,10.2458397 C9.98184687,10.2168512 9.99849024,10.1654506 9.98317079,10.1185833 L9.44104373,8.46152016 L10.8529752,7.43978901 C10.8929217,7.41087664 10.9096673,7.35949858 10.8944313,7.31259563 C10.8791953,7.26569267 10.8354547,7.23396849 10.7861454,7.23405811 L9.04362177,7.2375013 L8.50781859,5.57868477 C8.49211075,5.53010584 8.44594168,5.49796434 8.39493748,5.50010038 L8.39493748,5.50010038 Z"/></g></g></svg>