<svg xmlns="http://www.w3.org/2000/svg" xmlns:xlink="http://www.w3.org/1999/xlink" width="16" height="16" version="1.1" viewBox="0 0 16 16"><title>drawio</title><g id="Page-1" fill="none" fill-rule="evenodd" stroke="none" stroke-width="1"><g id="Group" fill="#616161" transform="translate(2.000000, 4.000000)"><polygon id="Rectangle" points="6.307 2.746 7.307 2.746 7.307 7.746 6.307 7.746" transform="translate(6.806626, 5.246338) rotate(-28.000000) translate(-6.806626, -5.246338)"/><polygon id="Rectangle" points="2.557 3 3.557 3 3.557 8 2.557 8" transform="translate(3.056626, 5.500000) scale(-1, 1) rotate(-28.000000) translate(-3.056626, -5.500000)"/><path id="Combined-Shape" d="M9,6 C9.55228475,6 10,6.44771525 10,7 L10,9 C10,9.55228475 9.55228475,10 9,10 L7,10 C6.44771525,10 6,9.55228475 6,9 L6,7 C6,6.44771525 6.44771525,6 7,6 L9,6 Z M3,6 C3.55228475,6 4,6.44771525 4,7 L4,9 C4,9.55228475 3.55228475,10 3,10 L1,10 C0.44771525,10 6.76353751e-17,9.55228475 0,9 L0,7 C-6.76353751e-17,6.44771525 0.44771525,6 1,6 L3,6 Z M6,0 C6.55228475,-1.01453063e-16 7,0.44771525 7,1 L7,3 C7,3.55228475 6.55228475,4 6,4 L4,4 C3.44771525,4 3,3.55228475 3,3 L3,1 C3,0.44771525 3.44771525,1.01453063e-16 4,0 L6,0 Z"/></g></g></svg>