<svg xmlns="http://www.w3.org/2000/svg" xmlns:xlink="http://www.w3.org/1999/xlink" width="16" height="16" version="1.1" viewBox="0 0 16 16"><title>drawio-secret</title><g id="Page-1" fill="none" fill-rule="evenodd" stroke="none" stroke-width="1"><g id="Group-12" transform="translate(2.000000, 4.000000)"><polygon id="Rectangle" fill="#616161" points="2.557 3 3.557 3 3.557 8 2.557 8" transform="translate(3.056626, 5.500000) scale(-1, 1) rotate(-28.000000) translate(-3.056626, -5.500000)"/><rect id="Rectangle" width="4" height="4" x="0" y="6" fill="#616161" rx="1"/><polygon id="Rectangle" fill="#616161" points="6.072 2.805 7.072 2.805 7.072 6.368 6.42 6.535 6.072 6.805" transform="translate(6.571891, 4.804864) rotate(-28.000000) translate(-6.571891, -4.804864)"/><rect id="Rectangle" width="4" height="4" x="3" y="0" fill="#616161" rx="1"/><path id="Combined-Shape" fill="#616161" d="M7.68914615,5.99939037 C7.41437455,6.34188352 7.25,6.7767459 7.25,7.25 L7.25,7.25 L7.25033802,7.53141743 C6.85537982,7.63292459 6.55478303,7.96963843 6.50672773,8.38337887 L6.5,8.5 L6.4998705,9.86614288 C6.20104123,9.69321974 6,9.37008772 6,9 L6,7 C6,6.44771525 6.44771525,6 7,6 Z"/><path id="Shape" fill="#78E762" fill-rule="nonzero" d="M9.5,5.5 C8.46501458,5.5 7.61953353,6.34548105 7.61953353,7.38046647 L7.61953353,7.91982507 C7.27696793,7.91982507 7,8.196793 7,8.5393586 L7,10.9956268 C7,11.3381924 7.27696793,11.6151603 7.61953353,11.6151603 L11.3804665,11.6151603 C11.7230321,11.6151603 12,11.3381924 12,10.9956268 L12,8.5393586 C12,8.196793 11.7230321,7.91982507 11.3804665,7.91982507 L11.3804665,7.38046647 C11.3804665,6.34548105 10.5349854,5.5 9.5,5.5 Z M10.7244898,7.91982507 L8.2755102,7.91982507 L8.2755102,7.38046647 C8.2755102,6.70991254 8.82215743,6.15597668 9.5,6.15597668 C10.1778426,6.15597668 10.7244898,6.70991254 10.7244898,7.38046647 L10.7244898,7.91982507 Z"/></g></g></svg>