<svg xmlns="http://www.w3.org/2000/svg" xmlns:xlink="http://www.w3.org/1999/xlink" style="enable-background:new 0 0 64 64" version="1.1" viewBox="0 0 64 64" xml:space="preserve"><style type="text/css">.st0{fill:#ffeea9}.st1{fill:#d32436}.st2{fill:#8dd1d3}.st3{fill:#330d00}</style><g id="_x32_5-Pencil"><g><g><path d="M46.1,1.7l5.5,3.6c1.8,1.1,2.3,3.5,1.2,5.3l-2.7,4.2l-12-7.7l2.7-4.2C41.9,1.1,44.3,0.6,46.1,1.7z" class="st1"/></g><g><path d="M40.5,16.5L16.6,53.6c-2.3-1.5-3.8-3.7-4.5-6.1l22.4-34.9L40.5,16.5z" class="st0"/></g><g><path d="M46.5,20.3L24.1,55.2c-2.5,0.3-5.1-0.2-7.4-1.6l23.9-37.1L46.5,20.3z" class="st0"/></g><g><rect width="6.6" height="14.3" x="39" y="6.6" class="st2" transform="matrix(0.5412 -0.8409 0.8409 0.5412 7.8764 41.8439)"/></g><g><path d="M24.1,55.2l-7,4l-5.7-3.7l0.8-8.1c0.7,2.4,2.3,4.6,4.5,6.1C18.9,55,21.6,55.5,24.1,55.2z" class="st1"/></g><g><polygon points="17 59.2 10.6 62.9 11.3 55.6" class="st0"/></g><g><path d="M52.2,4.3l-5.5-3.6c-1.1-0.7-2.4-1-3.7-0.7c-1.3,0.3-2.4,1-3.1,2.2l-2.7,4.2L33.6,12c0,0,0,0,0,0L11.1,46.9 c0,0,0,0,0,0.1C11.1,47,11,47.1,11,47.3c0,0,0,0.1,0,0.1c0,0,0,0,0,0l-0.8,8.1c0,0,0,0,0,0l-0.7,7.3c0,0.4,0.2,0.8,0.5,1 c0.2,0.1,0.4,0.2,0.6,0.2c0.2,0,0.4,0,0.5-0.1l6.4-3.7c0,0,0,0,0,0l7-4c0,0,0,0,0,0c0,0,0.1,0,0.1-0.1c0.1-0.1,0.2-0.1,0.2-0.2 c0,0,0,0,0,0L47.4,21c0,0,0,0,0,0l3.6-5.6l2.7-4.2C55.2,8.9,54.5,5.8,52.2,4.3z M38.4,8.6l10.1,6.5l-2.4,3.7l0,0L36,12.3 L38.4,8.6z M23.4,54.1c-0.4,0-0.7,0.1-1.1,0c-0.1,0-0.2,0-0.3,0c-0.5,0-1-0.1-1.5-0.2c-0.2,0-0.3-0.1-0.5-0.1 c-0.4-0.1-0.7-0.2-1.1-0.3c-0.2-0.1-0.3-0.1-0.5-0.2c-0.1-0.1-0.2-0.1-0.3-0.2l15-23.2L40.8,18l3.4,2.2l0.8,0.5L23.4,54.1z M14.6,50.2c-0.3-0.4-0.6-0.9-0.8-1.3c0-0.1-0.1-0.1-0.1-0.2c-0.2-0.3-0.3-0.7-0.4-1l21.5-33.4l4.1,2.7L16.3,52 c-0.1-0.1-0.2-0.2-0.3-0.2c-0.1-0.1-0.2-0.2-0.4-0.3c-0.3-0.3-0.5-0.6-0.8-0.9C14.8,50.4,14.7,50.3,14.6,50.2z M12.2,57.5 l1.1,0.7l1.6,1l-3,1.7L12.2,57.5z M17.1,57.9l-0.5-0.3L12.5,55l0.3-3.6c0,0,0.1,0.1,0.1,0.1c0.3,0.4,0.6,0.7,0.9,1.1 c0.2,0.2,0.3,0.4,0.5,0.6c0.5,0.5,1.1,0.9,1.7,1.3c0,0,0,0,0,0c0,0,0,0,0,0c0,0,0,0,0,0c0,0,0,0,0,0c0.6,0.4,1.2,0.7,1.8,0.9 c0.2,0.1,0.4,0.1,0.6,0.2c0.5,0.2,0.9,0.3,1.4,0.4c0.1,0,0.2,0.1,0.4,0.1L17.1,57.9z M51.8,10l-2.1,3.3L39.6,6.7l2.1-3.3 c0.4-0.6,1-1,1.7-1.2c0.7-0.2,1.4,0,2.1,0.4v0L51,6.2C52.3,7,52.7,8.7,51.8,10z" class="st3"/></g></g></g></svg>