<svg xmlns="http://www.w3.org/2000/svg" viewBox="0 0 16 16"><style>.icon-canvas-transparent{opacity:0;fill:#f6f6f6}.icon-vs-out{fill:#f6f6f6}.icon-vs-bg{fill:#424242}.icon-vs-fg{fill:#f0eff1}.icon-vs-green{fill:#393}</style><path id="canvas" d="M16 16H0V0h16v16z" class="icon-canvas-transparent"/><path id="outline" d="M16 1v14h-1.382c-.703.615-1.612 1-2.618 1a3.966 3.966 0 0 1-2.618-1H0V1h16z" class="icon-vs-out"/><path id="iconBg" d="M8.556 14H1V2h14v7.382a4.001 4.001 0 0 0-1-.826V5H2v8h6.142c.092.356.233.69.414 1z" class="icon-vs-bg"/><path id="iconFg" d="M8.142 13H2V5h12v3.556A3.959 3.959 0 0 0 12 8c-2.206 0-4 1.794-4 4 0 .347.058.679.142 1z" class="icon-vs-fg"/><circle id="notificationFg" cx="12" cy="12" r="3" class="icon-vs-green"/></svg>