<svg xmlns="http://www.w3.org/2000/svg" xmlns:xlink="http://www.w3.org/1999/xlink" style="enable-background:new 0 0 3545.4 855.1" id="Layer_1" x="0" y="0" version="1.1" viewBox="0 0 3545.4 855.1" xml:space="preserve"><style type="text/css">.st0{clip-path:url(#SVGID_2_)}.st1{fill:#172b4d}.st2{clip-path:url(#SVGID_4_)}.st3,.st4,.st5{opacity:.5;fill:#403294;enable-background:new}.st4,.st5{opacity:.6;fill:#5243aa}.st5{opacity:.7}.st6{opacity:.8;fill:url(#SVGID_5_)}.st6,.st7,.st8{enable-background:new}.st7{opacity:.17;fill:url(#SVGID_6_)}.st8{opacity:.9}.st8,.st9{fill:#6554c0}.st10{opacity:.7}.st11{opacity:.8;fill:url(#SVGID_7_);enable-background:new}.st12{opacity:.6;fill:#47399d}.st12,.st13,.st14,.st15{enable-background:new}.st13{opacity:.7;fill:#4f40a6}.st14{opacity:.8;fill:#5646ae}.st15{opacity:.9;fill:#5e4db7}.st16{opacity:.6}.st17{opacity:.5}.st18{opacity:.4;fill:none;stroke:#998dd9;stroke-width:10;stroke-miterlimit:10;enable-background:new}</style><title>Artboard 35</title><g><defs><rect id="SVGID_1_" width="3545.4" height="855.1"/></defs><clipPath id="SVGID_2_"><use style="overflow:visible" xlink:href="#SVGID_1_"/></clipPath><g id="BG" class="st0"><rect width="3840" height="854" class="st1"/></g><g id="Layer_3" class="st0"><g><defs><rect id="SVGID_3_" width="3840" height="855.1"/></defs><clipPath id="SVGID_4_"><use style="overflow:visible" xlink:href="#SVGID_3_"/></clipPath><g class="st2"><polygon points="756.3 613.8 321.6 613.8 640.5 357.2 1075.2 357.2" class="st3"/><polygon points="756.3 498.9 321.6 498.9 640.5 242.2 1075.2 242.2" class="st4"/><polygon points="756.3 384 321.6 384 640.5 127.3 1075.2 127.3" class="st5"/><linearGradient id="SVGID_5_" x1="624.89" x2="624.89" y1="523.04" y2="779.66" gradientTransform="matrix(1 0 0 -1 0 858)" gradientUnits="userSpaceOnUse"><stop style="stop-color:#6554c0" offset="0"/><stop style="stop-color:#6554c0" offset="1"/></linearGradient><polygon points="682.8 335 248.1 335 567 78.3 1001.7 78.3" class="st6"/><linearGradient id="SVGID_6_" x1="300.295" x2="300.295" y1="266.16" y2="522.78" gradientTransform="matrix(1 0 0 -1 0 858)" gradientUnits="userSpaceOnUse"><stop style="stop-color:#6554c0;stop-opacity:0" offset="0"/><stop style="stop-color:#6554c0;stop-opacity:.18" offset=".16"/><stop style="stop-color:#6554c0;stop-opacity:.62" offset=".57"/><stop style="stop-color:#6554c0;stop-opacity:.89" offset=".86"/><stop style="stop-color:#6554c0" offset="1"/></linearGradient><polygon points="358.2 591.8 -76.5 591.8 242.4 335.2 677.1 335.2" class="st7"/><polygon points="756.3 154.1 321.6 154.1 640.5 -102.5 1075.2 -102.5" class="st8"/><polygon points="756.3 39.2 321.6 39.2 640.5 -217.4 1075.2 -217.4" class="st9"/><polygon points="2635.3 632.6 2200.6 632.6 2519.5 375.9 2954.2 375.9" class="st3"/><polygon points="2635.3 528.1 2200.6 528.1 2519.5 271.4 2954.2 271.4" class="st4"/><polygon points="2635.3 423.6 2200.6 423.6 2519.5 166.9 2954.2 166.9" class="st5"/><polygon points="2635.3 214.6 2200.6 214.6 2519.5 -42.1 2954.2 -42.1" class="st8"/><polygon points="2635.3 110.1 2200.6 110.1 2519.5 -146.6 2954.2 -146.6" class="st9"/><g class="st10"><polygon points="3132.1 992 2697.4 992 3016.4 735.4 3451.1 735.4" class="st3"/><polygon points="3132.1 900.5 2697.4 900.5 3016.4 643.9 3451.1 643.9" class="st4"/><polygon points="3092.1 819.1 2657.4 819.1 2976.4 562.4 3411.1 562.4" class="st5"/><linearGradient id="SVGID_7_" x1="2881.925" x2="2881.925" y1="-5.72" y2="250.91" gradientTransform="matrix(1 0 0 -1 0 858)" gradientUnits="userSpaceOnUse"><stop style="stop-color:#6554c0" offset="0"/><stop style="stop-color:#6554c0" offset="1"/></linearGradient><polygon points="2939.8 863.7 2505.1 863.7 2824 607.1 3258.8 607.1" class="st11"/><polygon points="3116.4 653.1 2681.6 653.1 3000.6 396.5 3435.3 396.5" class="st8"/><polygon points="3132.1 534.6 2697.4 534.6 3016.4 278 3451.1 278" class="st9"/></g><g class="st10"><polygon points="2071.1 198.2 1810.7 198.2 2001.7 44.5 2262.2 44.5" class="st3"/><polygon points="2071.1 132.8 1810.7 132.8 2001.7 -20.9 2262.2 -20.9" class="st12"/><polygon points="2071.1 67.5 1810.7 67.5 2001.7 -86.3 2262.2 -86.3" class="st13"/><polygon points="2071.1 2.1 1810.7 2.1 2001.7 -151.6 2262.2 -151.6" class="st14"/></g><g class="st10"><polygon points="3544.9 570.5 3284.5 570.5 3475.5 416.8 3736 416.8" class="st3"/><polygon points="3544.9 505.2 3284.5 505.2 3475.5 351.4 3736 351.4" class="st12"/><polygon points="3544.9 439.8 3284.5 439.8 3475.5 286.1 3736 286.1" class="st13"/><polygon points="3544.9 374.5 3284.5 374.5 3475.5 220.7 3736 220.7" class="st14"/><polygon points="3544.9 309.1 3284.5 309.1 3475.5 155.4 3736 155.4" class="st15"/><polygon points="3544.9 243.8 3284.5 243.8 3475.5 90 3736 90" class="st9"/></g><g class="st16"><polygon points="1335.7 1008.3 1075.2 1008.3 1266.3 854.6 1526.8 854.6" class="st12"/><polygon points="1335.7 943 1075.2 943 1266.3 789.2 1526.8 789.2" class="st13"/><polygon points="1335.7 877.6 1075.2 877.6 1266.3 723.9 1526.8 723.9" class="st14"/><polygon points="1335.7 812.3 1075.2 812.3 1266.3 658.5 1526.8 658.5" class="st15"/><polygon points="1335.7 746.9 1075.2 746.9 1266.3 593.2 1526.8 593.2" class="st9"/></g><g class="st16"><polygon points="1354.6 135.7 1094.1 135.7 1285.2 -18 1545.7 -18" class="st3"/><polygon points="1354.6 70.3 1094.1 70.3 1285.2 -83.4 1545.7 -83.4" class="st12"/><polygon points="1354.6 5 1094.1 5 1285.2 -148.8 1545.7 -148.8" class="st13"/></g><polygon points="55.8 427 -204.7 427 -13.6 273.2 246.9 273.2" class="st3"/><polygon points="55.8 361.6 -204.7 361.6 -13.6 207.9 246.9 207.9" class="st12"/><polygon points="55.8 296.3 -204.7 296.3 -13.6 142.5 246.9 142.5" class="st13"/><polygon points="55.8 230.9 -204.7 230.9 -13.6 77.2 246.9 77.2" class="st14"/><polygon points="55.8 165.6 -204.7 165.6 -13.6 11.8 246.9 11.8" class="st15"/><polygon points="55.8 100.2 -204.7 100.2 -13.6 -53.5 246.9 -53.5" class="st9"/><polygon points="255.1 1240 -419.5 1240 75.4 841.8 750 841.8" class="st13"/><polygon points="255.1 1144.7 -419.5 1144.7 75.4 746.4 750 746.4" class="st14"/><polygon points="255.1 1049.3 -419.5 1049.3 75.4 651 750 651" class="st15"/><polygon points="255.1 953.9 -419.5 953.9 75.4 555.7 750 555.7" class="st9"/><g class="st17"><line x1="1850" x2="2221.8" y1="693.8" y2="693.8" class="st18"/><line x1="1850" x2="2221.8" y1="734.9" y2="734.9" class="st18"/><line x1="1850" x2="2125.9" y1="776" y2="776" class="st18"/></g></g></g></g></g></svg>